PathFileType	4	(X/Y/Z)	C:/Users/opensim2020/Desktop/walking_exp_matlab/subject03_walking06_straight_01.trc	
DataRate	CameraRate	NumFrames	NumMarkers	Units	OrigDataRate	OrigDataStartFrame	OrigNumFrames	
100.00	100.00	4	44	mm	100.00	669	362	
Frame#	Time	LFHD			RFHD			LBHD			RBHD			C7			T10			CLAV			STRN			RBAK			LSHO			LUPA			LELB			LFRM			LWRA			LWRB			LFIN			RSHO			RUPA			RELB			RFRM			RWRA			RWRB			RFIN			LASI			RASI			LPSI			RPSI			LTHI			LKNE			LTIB			LANK			LHEE			LTOE			RTHI			RKNE			RTIB			RANK			RHEE			RTOE			*39			*40			*41			*42			*43			
		X1	Y1	Z1	X2	Y2	Z2	X3	Y3	Z3	X4	Y4	Z4	X5	Y5	Z5	X6	Y6	Z6	X7	Y7	Z7	X8	Y8	Z8	X9	Y9	Z9	X10	Y10	Z10	X11	Y11	Z11	X12	Y12	Z12	X13	Y13	Z13	X14	Y14	Z14	X15	Y15	Z15	X16	Y16	Z16	X17	Y17	Z17	X18	Y18	Z18	X19	Y19	Z19	X20	Y20	Z20	X21	Y21	Z21	X22	Y22	Z22	X23	Y23	Z23	X24	Y24	Z24	X25	Y25	Z25	X26	Y26	Z26	X27	Y27	Z27	X28	Y28	Z28	X29	Y29	Z29	X30	Y30	Z30	X31	Y31	Z31	X32	Y32	Z32	X33	Y33	Z33	X34	Y34	Z34	X35	Y35	Z35	X36	Y36	Z36	X37	Y37	Z37	X38	Y38	Z38	X39	Y39	Z39	X40	Y40	Z40	X41	Y41	Z41	X42	Y42	Z42	X43	Y43	Z43	X44	Y44	Z44	

227	2.260	1396.71472	302.36996	1617.08301	1530.13574	304.34082	1623.78125	1405.48499	182.71330	1554.70825	1536.27087	189.22536	1561.57947	1458.91284	168.34998	1412.09583	1448.15173	119.24833	1102.02551	1459.95752	289.31796	1332.00012	1455.88635	321.06805	1163.84265	1554.55457	106.47527	1242.88684	1302.52734	248.39847	1372.89221	1231.19263	203.65002	1178.75110	1216.75525	185.46301	1056.82190	1210.51099	188.91353	926.73230	1235.91016	190.75636	805.37103	1188.37427	162.33255	817.19867	1194.60876	163.78932	732.21118	1618.58533	243.38728	1358.30322	1699.77380	271.78876	1144.91650	1716.14063	311.68781	1041.11365	1713.86414	376.08456	920.72162	1673.78333	438.53513	846.37225	1716.97974	412.41238	827.43164	1705.60999	463.31665	774.12830	1344.68701	295.60135	931.40204	1581.54993	271.24380	933.27026	1374.87427	128.77649	950.62274	1523.66711	114.62601	966.55402	1300.06079	299.03754	627.64612	1355.26746	359.61520	466.26837	1359.48022	373.73422	276.50076	1400.14917	434.86578	74.40119	1443.36914	409.17343	32.12730	1411.70410	587.17517	75.99081	1607.51685	172.24677	646.79285	1571.24756	152.90620	467.94193	1560.16907	57.07189	298.33664	1498.73596	-17.69853	95.47633	1443.24890	-63.10817	76.21581	1485.70642	116.71172	34.88791	1447.47473	210.70502	1664.11414												 
228	2.270	1396.79968	311.97159	1616.36438	1529.87732	313.97162	1623.10071	1405.24109	192.44316	1554.04114	1536.03711	198.88762	1560.93298	1458.50500	178.15367	1411.40833	1447.69458	129.50237	1101.21484	1459.81128	299.35327	1331.42200	1456.00342	331.22253	1163.32202	1554.17334	116.30497	1242.15820	1302.20972	258.59436	1372.27795	1231.13416	213.57312	1178.05701	1216.92065	195.01802	1056.21021	1210.71216	197.26381	926.01965	1236.22192	197.97491	804.77222	1188.60913	169.63339	816.71344	1194.99194	170.06033	731.63446	1618.34399	252.91861	1357.80249	1699.41541	281.28638	1144.42725	1715.72595	321.28766	1040.65857	1713.27979	386.01776	920.60345	1673.25562	449.23788	847.11890	1716.12061	422.94370	827.43146	1704.87903	474.08240	774.71997	1345.01233	306.42737	930.72522	1581.92529	280.89743	932.52582	1374.37610	139.37387	950.13434	1523.05005	124.55187	965.88330	1301.97595	308.44574	626.44025	1357.02307	368.42899	465.12949	1361.29614	382.16711	275.33298	1402.59644	442.79666	73.04512	1445.56470	416.73849	30.94114	1414.46106	595.04889	74.69747	1608.01221	180.67232	646.43671	1572.25818	160.66942	467.50668	1560.81409	62.08321	299.20697	1499.20093	-16.27000	97.77074	1443.56982	-61.81877	79.43752	1485.79565	117.05449	34.79362	1446.58215	220.20978	1663.28003												 
229	2.280	1396.56042	321.74185	1615.73157	1529.68530	323.64801	1622.52454	1404.96790	202.10440	1553.47180	1535.78088	208.52020	1560.37000	1457.95251	187.94969	1410.65063	1447.24219	139.78381	1100.39587	1459.58179	309.43091	1330.96765	1456.04956	341.54147	1162.90979	1553.66248	126.23562	1241.45447	1301.82898	268.94885	1371.73413	1231.00403	223.79829	1177.34399	1217.04468	204.97365	1055.55969	1210.97717	206.10735	925.29883	1236.48254	205.48570	803.88159	1188.76660	177.45796	816.25879	1195.41052	176.80043	731.11768	1617.92688	262.55341	1357.38501	1698.97693	290.71686	1143.99817	1715.24158	330.60971	1040.19373	1712.68079	395.69238	920.35571	1672.55139	459.23132	847.16693	1715.29907	432.89948	827.32251	1703.92175	484.53101	774.98840	1345.48633	317.32797	929.93109	1582.31738	290.83252	931.85736	1373.87646	150.52748	949.50641	1522.42554	134.77884	965.18542	1302.95886	318.79810	625.60077	1358.55823	377.87906	464.17175	1362.66772	389.86017	273.93494	1404.90051	448.34448	71.28980	1447.22461	421.50183	30.20957	1417.45227	600.40491	72.01888	1608.54797	189.47305	646.02307	1573.31030	169.02290	467.00742	1561.49084	67.53125	300.12134	1499.55603	-14.90390	100.30784	1443.98853	-60.56662	83.03802	1485.93262	117.34230	34.72152	1447.13086	230.17638	1662.96460												 
230	2.290	1395.91992	331.39090	1615.33203	1529.36792	333.28384	1621.91577	1404.59106	211.83183	1552.99854	1535.42542	218.14032	1559.86426	1457.30371	197.89206	1410.14075	1446.77515	150.16721	1099.63123	1459.26257	319.50839	1330.55505	1456.03113	351.90329	1162.55371	1553.00879	136.22910	1240.79138	1301.35498	279.40723	1371.24194	1230.83740	234.31984	1176.72839	1217.18372	215.26625	1054.88354	1211.26074	215.36745	924.66956	1236.79309	213.60785	803.35645	1188.93811	185.87866	815.82355	1195.88989	184.04126	730.53821	1617.46240	272.13019	1357.02637	1698.46960	300.01254	1143.61609	1714.66907	339.71783	1039.73254	1712.06396	405.02734	920.05243	1671.96155	468.87067	847.24872	1714.44727	442.36819	827.07678	1703.13879	494.35535	775.06622	1345.95496	328.64001	929.18561	1582.62280	300.10919	931.23206	1373.41309	161.82057	949.02490	1521.93774	145.15094	964.54663	1303.69226	329.82474	625.08270	1359.69885	387.40286	463.08960	1363.83447	396.87677	272.39722	1406.83105	451.68338	69.00446	1448.06531	423.36719	29.37483	1421.40552	603.66681	67.24955	1609.25500	198.56035	645.49640	1574.55920	177.90840	466.32358	1562.28870	73.19126	301.10574	1500.09314	-12.95942	103.02115	1444.31018	-59.00301	87.00562	1486.04407	117.59043	34.65567	1446.66553	239.81148	1662.38159												 
